<?xml version="1.0" encoding="UTF-8"?>
<svg id="Capa_2" data-name="Capa 2" xmlns="http://www.w3.org/2000/svg" viewBox="0 0 1816.54 476.23">
  <defs>
    <style>
      .cls-1 {
        stroke-width: 6px;
      }

      .cls-1, .cls-2, .cls-3, .cls-4, .cls-5 {
        stroke-miterlimit: 10;
      }

      .cls-1, .cls-2, .cls-5 {
        stroke: #eb5a2d;
      }

      .cls-1, .cls-5 {
        fill: #eb5a2d;
      }

      .cls-6 {
        font-size: 40.38px;
      }

      .cls-6, .cls-7 {
        font-family: MyriadPro-Regular, 'Myriad Pro';
      }

      .cls-6, .cls-7, .cls-3 {
        fill: #010101;
      }

      .cls-7 {
        font-size: 41.8px;
      }

      .cls-2, .cls-3, .cls-4 {
        stroke-width: 2px;
      }

      .cls-2, .cls-4 {
        fill: none;
      }

      .cls-8 {
        letter-spacing: 0em;
      }

      .cls-3, .cls-4 {
        stroke: #010101;
      }

      .cls-9 {
        letter-spacing: -.02em;
      }

      .cls-10 {
        letter-spacing: -.04em;
      }

      .cls-11 {
        letter-spacing: 0em;
      }

      .cls-12 {
        letter-spacing: 0em;
      }

      .cls-13 {
        letter-spacing: 0em;
      }

      .cls-14 {
        letter-spacing: -.01em;
      }

      .cls-15 {
        letter-spacing: 0em;
      }

      .cls-16 {
        letter-spacing: 0em;
      }

      .cls-17 {
        letter-spacing: 0em;
      }

      .cls-18 {
        letter-spacing: 0em;
      }

      .cls-19 {
        letter-spacing: .02em;
      }

      .cls-20 {
        letter-spacing: .01em;
      }

      .cls-21 {
        letter-spacing: .01em;
      }

      .cls-22 {
        letter-spacing: 0em;
      }

      .cls-23 {
        letter-spacing: 0em;
      }
    </style>
  </defs>
  <g id="Capa_1-2" data-name="Capa 1">
    <rect class="cls-4" x="1.52" y="1" width="1814.02" height="379.72" rx="83.27" ry="83.27"/>
    <line class="cls-1" x1="124.8" y1="219.5" x2="1722.25" y2="219.5"/>
    <text class="cls-7" transform="translate(70.99 272.62) rotate(-90)"><tspan class="cls-22" x="0" y="0">S</tspan><tspan x="20.86" y="0">emest</tspan><tspan class="cls-15" x="127.99" y="0">r</tspan><tspan x="141.24" y="0">es</tspan></text>
    <text class="cls-6" transform="translate(280.91 292.16)"><tspan class="cls-18" x="0" y="0">C</tspan><tspan x="23.3" y="0">iclo b치si</tspan><tspan class="cls-11" x="158.97" y="0">c</tspan><tspan x="176.82" y="0">o</tspan><tspan x="60.29" y="48.46">I a IV</tspan></text>
    <text class="cls-6" transform="translate(764.43 292.17)"><tspan class="cls-18" x="0" y="0">C</tspan><tspan x="23.3" y="0">iclo especializado</tspan><tspan x="104.52" y="48.46">V a</tspan><tspan class="cls-10" x="155.08" y="48.46"> </tspan><tspan x="162.18" y="48.46">VIII</tspan></text>
    <text class="cls-6" transform="translate(291.93 188.55)"><tspan class="cls-9" x="0" y="0">P</tspan><tspan class="cls-14" x="20.84" y="0">r</tspan><tspan class="cls-16" x="33.64" y="0">o</tspan><tspan class="cls-14" x="55.52" y="0">y</tspan><tspan x="74.14" y="0">e</tspan><tspan class="cls-21" x="94.37" y="0">c</tspan><tspan class="cls-12" x="112.98" y="0">t</tspan><tspan x="126.11" y="0">o III</tspan></text>
    <rect class="cls-5" x="369.22" y="219.5" width="22.37" height="27.01"/>
    <rect class="cls-5" x="912.34" y="219.5" width="22.37" height="27.01"/>
    <rect class="cls-2" x="665.47" y="82.9" width="516.12" height="136.85"/>
    <line class="cls-3" y1="475.23" x2="1814.49" y2="475.23"/>
    <rect class="cls-2" x="125.77" y="126.03" width="516.12" height="95.56"/>
    <text class="cls-6" transform="translate(726.09 140.09)"><tspan x="0" y="0">Ele</tspan><tspan class="cls-20" x="49.63" y="0">c</tspan><tspan x="68.24" y="0">ti</tspan><tspan class="cls-14" x="91.05" y="0">v</tspan><tspan class="cls-8" x="110.07" y="0">o </tspan><tspan class="cls-23" x="140.8" y="0">M</tspan><tspan x="173.51" y="0">enci칩n</tspan><tspan class="cls-10" x="288.27" y="0"> </tspan><tspan x="295.37" y="0">V y M:</tspan><tspan x="-42.1" y="48.46">Dise침o G</tspan><tspan class="cls-13" x="109.69" y="48.46">r</tspan><tspan x="122.69" y="48.46">치fi</tspan><tspan class="cls-12" x="163.27" y="48.46">c</tspan><tspan x="181.12" y="48.46">o pa</tspan><tspan class="cls-13" x="254.29" y="48.46">r</tspan><tspan x="267.29" y="48.46">a las </tspan><tspan class="cls-17" x="348.85" y="48.46">A</tspan><tspan class="cls-19" x="373.45" y="48.46">r</tspan><tspan class="cls-11" x="387.62" y="48.46">t</tspan><tspan x="400.74" y="48.46">es</tspan></text>
  </g>
</svg>