<?xml version="1.0" encoding="UTF-8"?>
<svg id="Capa_2" data-name="Capa 2" xmlns="http://www.w3.org/2000/svg" viewBox="0 0 753.16 204.13">
  <defs>
    <style>
      .cls-1 {
        letter-spacing: 0em;
      }

      .cls-2 {
        fill: #eb5a2d;
      }

      .cls-3 {
        fill: #fff;
        font-family: MyriadPro-Regular, 'Myriad Pro';
        font-size: 33.87px;
      }

      .cls-4 {
        letter-spacing: -.07em;
      }

      .cls-5 {
        letter-spacing: -.03em;
      }

      .cls-6 {
        letter-spacing: 0em;
      }

      .cls-7 {
        letter-spacing: 0em;
      }

      .cls-8 {
        letter-spacing: 0em;
      }

      .cls-9 {
        letter-spacing: -.01em;
      }

      .cls-10 {
        letter-spacing: 0em;
      }

      .cls-11 {
        letter-spacing: .01em;
      }

      .cls-12 {
        letter-spacing: 0em;
      }
    </style>
  </defs>
  <g id="Capa_1-2" data-name="Capa 1">
    <rect class="cls-2" x="0" y="0" width="226.1" height="93.29" rx="46.65" ry="46.65"/>
    <rect class="cls-2" x="241.88" y="0" width="223.36" height="93.29" rx="46.65" ry="46.65"/>
    <rect class="cls-2" x="481.27" y=".28" width="271.89" height="93.29" rx="46.65" ry="46.65"/>
    <text class="cls-3" transform="translate(39.1 56.24)"><tspan x="0" y="0">N</tspan><tspan class="cls-8" x="22.28" y="0">a</tspan><tspan x="38.47" y="0">tu</tspan><tspan class="cls-7" x="68.34" y="0">r</tspan><tspan class="cls-1" x="79.25" y="0">aleza</tspan></text>
    <text class="cls-3" transform="translate(285.03 57.24)"><tspan class="cls-5" x="0" y="0">F</tspan><tspan x="15.44" y="0">o</tspan><tspan class="cls-6" x="34.03" y="0">t</tspan><tspan x="45.04" y="0">o</tspan><tspan class="cls-6" x="63.63" y="0">g</tspan><tspan class="cls-7" x="82.36" y="0">r</tspan><tspan x="93.26" y="0">afía</tspan></text>
    <text class="cls-3" transform="translate(524.21 57.51)"><tspan class="cls-4" x="0" y="0">T</tspan><tspan x="14.43" y="0">écnica mi</tspan><tspan class="cls-11" x="148.13" y="0">x</tspan><tspan x="164.25" y="0">ta</tspan></text>
    <rect class="cls-2" x="0" y="110.83" width="226.1" height="93.29" rx="46.65" ry="46.65"/>
    <text class="cls-3" transform="translate(63.59 168.07)"><tspan x="0" y="0">J</tspan><tspan class="cls-10" x="12.53" y="0">o</tspan><tspan class="cls-9" x="30.89" y="0">y</tspan><tspan x="46.5" y="0">e</tspan><tspan class="cls-12" x="63.46" y="0">r</tspan><tspan x="74.67" y="0">ía</tspan></text>
  </g>
</svg>