<?xml version="1.0" encoding="UTF-8"?>
<svg id="Capa_2" data-name="Capa 2" xmlns="http://www.w3.org/2000/svg" viewBox="0 0 1919 612">
  <defs>
    <style>
      .cls-1, .cls-2, .cls-3 {
        fill: none;
      }

      .cls-4 {
        stroke-width: 6px;
      }

      .cls-4, .cls-2, .cls-5, .cls-3, .cls-6 {
        stroke-miterlimit: 10;
      }

      .cls-4, .cls-2, .cls-6 {
        stroke: #eb5a2d;
      }

      .cls-4, .cls-6 {
        fill: #eb5a2d;
      }

      .cls-7 {
        font-size: 40.38px;
      }

      .cls-7, .cls-8, .cls-9 {
        font-family: MyriadPro-Regular, 'Myriad Pro';
      }

      .cls-7, .cls-8, .cls-9, .cls-5, .cls-10 {
        fill: #010101;
      }

      .cls-8 {
        font-size: 41.8px;
      }

      .cls-9 {
        font-size: 33.87px;
      }

      .cls-2, .cls-5, .cls-3 {
        stroke-width: 2px;
      }

      .cls-11 {
        letter-spacing: 0em;
      }

      .cls-5, .cls-3 {
        stroke: #010101;
      }

      .cls-12 {
        letter-spacing: 0em;
      }

      .cls-13 {
        letter-spacing: 0em;
      }

      .cls-14 {
        letter-spacing: -.01em;
      }

      .cls-15 {
        letter-spacing: -.02em;
      }

      .cls-16 {
        letter-spacing: -.04em;
      }

      .cls-17 {
        letter-spacing: 0em;
      }

      .cls-18 {
        letter-spacing: 0em;
      }

      .cls-19 {
        letter-spacing: 0em;
      }

      .cls-20 {
        letter-spacing: 0em;
      }

      .cls-21 {
        letter-spacing: 0em;
      }

      .cls-22 {
        letter-spacing: 0em;
      }

      .cls-23 {
        letter-spacing: 0em;
      }

      .cls-24 {
        letter-spacing: 0em;
      }

      .cls-25 {
        letter-spacing: -.01em;
      }

      .cls-26 {
        letter-spacing: 0em;
      }

      .cls-27 {
        letter-spacing: 0em;
      }

      .cls-28 {
        letter-spacing: 0em;
      }

      .cls-29 {
        letter-spacing: 0em;
      }

      .cls-30 {
        letter-spacing: 0em;
      }

      .cls-31 {
        letter-spacing: 0em;
      }

      .cls-10 {
        font-family: MyriadConceptRoman-Semibold, 'Myriad Variable Concept';
        font-size: 55.1px;
        font-variation-settings: 'wght' 600, 'wdth' 100;
        font-weight: 600;
      }

      .cls-32 {
        letter-spacing: .02em;
      }

      .cls-33 {
        letter-spacing: .01em;
      }

      .cls-34 {
        letter-spacing: 0em;
      }

      .cls-35 {
        letter-spacing: 0em;
      }

      .cls-36 {
        letter-spacing: 0em;
      }

      .cls-37 {
        letter-spacing: 0em;
      }
    </style>
  </defs>
  <g id="Capa_1-2" data-name="Capa 1">
    <text class="cls-10" transform="translate(64.91 69.59)"><tspan class="cls-23" x="0" y="0">A</tspan><tspan x="34.82" y="0">si</tspan><tspan class="cls-23" x="71.91" y="0">g</tspan><tspan x="103.26" y="0">n</tspan><tspan class="cls-19" x="134.78" y="0">a</tspan><tspan x="162.44" y="0">tu</tspan><tspan class="cls-26" x="213.14" y="0">r</tspan><tspan x="232.26" y="0">as impa</tspan><tspan class="cls-32" x="415.69" y="0">r</tspan><tspan x="436.58" y="0">tidas</tspan></text>
    <line class="cls-5" x1="66.27" y1="88.72" x2="768.37" y2="88.72"/>
    <text class="cls-9" transform="translate(67.54 127.55)"><tspan class="cls-12" x="0" y="0">D</tspan><tspan x="22.66" y="0">u</tspan><tspan class="cls-20" x="41.31" y="0">r</tspan><tspan x="52.22" y="0">a</tspan><tspan class="cls-22" x="68.54" y="0">n</tspan><tspan class="cls-18" x="87.2" y="0">t</tspan><tspan x="98.21" y="0">e los ciclos de la ca</tspan><tspan class="cls-37" x="361.21" y="0">r</tspan><tspan class="cls-27" x="372.42" y="0">r</tspan><tspan x="383.15" y="0">e</tspan><tspan class="cls-20" x="400.12" y="0">r</tspan><tspan x="411.02" y="0">a</tspan></text>
    <rect class="cls-3" x="64.66" y="175.06" width="1814.02" height="379.72" rx="83.27" ry="83.27"/>
    <line class="cls-4" x1="187.93" y1="393.56" x2="1785.38" y2="393.56"/>
    <text class="cls-8" transform="translate(134.12 446.68) rotate(-90)"><tspan class="cls-34" x="0" y="0">S</tspan><tspan x="20.86" y="0">emest</tspan><tspan class="cls-28" x="127.99" y="0">r</tspan><tspan x="141.24" y="0">es</tspan></text>
    <text class="cls-7" transform="translate(344.04 466.22)"><tspan class="cls-31" x="0" y="0">C</tspan><tspan x="23.3" y="0">iclo bási</tspan><tspan class="cls-17" x="158.97" y="0">c</tspan><tspan x="176.82" y="0">o</tspan><tspan x="60.29" y="48.46">I a IV</tspan></text>
    <text class="cls-7" transform="translate(827.57 466.22)"><tspan class="cls-31" x="0" y="0">C</tspan><tspan x="23.3" y="0">iclo especializado</tspan><tspan x="104.52" y="48.46">V a</tspan><tspan class="cls-16" x="155.08" y="48.46"> </tspan><tspan x="162.18" y="48.46">VIII</tspan></text>
    <text class="cls-7" transform="translate(1436.93 466.22)"><tspan class="cls-31" x="0" y="0">C</tspan><tspan x="23.3" y="0">iclo p</tspan><tspan class="cls-25" x="114.07" y="0">r</tspan><tspan class="cls-13" x="126.87" y="0">o</tspan><tspan class="cls-14" x="149.04" y="0">f</tspan><tspan class="cls-13" x="160.31" y="0">esional</tspan><tspan x="93.6" y="48.46">IX a X</tspan></text>
    <text class="cls-7" transform="translate(755.58 308.15)"><tspan class="cls-35" x="0" y="0">S</tspan><tspan class="cls-11" x="20.15" y="0">emina</tspan><tspan class="cls-36" x="125.38" y="0">r</tspan><tspan x="138.74" y="0">io de Li</tspan><tspan class="cls-17" x="258.99" y="0">c</tspan><tspan x="276.84" y="0">enci</tspan><tspan class="cls-24" x="347.02" y="0">a</tspan><tspan x="366.32" y="0">tu</tspan><tspan class="cls-21" x="401.93" y="0">r</tspan><tspan x="414.94" y="0">a</tspan><tspan x="0" y="48.46">I y II</tspan></text>
    <rect class="cls-2" x="1271.72" y="271.62" width="513.67" height="123.5"/>
    <text class="cls-7" transform="translate(1300.62 336.82)"><tspan class="cls-15" x="0" y="0">P</tspan><tspan class="cls-29" x="20.84" y="0">r</tspan><tspan class="cls-30" x="33.64" y="0">o</tspan><tspan class="cls-29" x="55.52" y="0">y</tspan><tspan class="cls-13" x="74.14" y="0">e</tspan><tspan class="cls-33" x="94.37" y="0">c</tspan><tspan class="cls-17" x="112.98" y="0">t</tspan><tspan x="126.11" y="0">o de título I y II</tspan></text>
    <rect class="cls-6" x="432.35" y="393.56" width="22.37" height="27.01"/>
    <rect class="cls-6" x="975.47" y="393.56" width="22.37" height="27.01"/>
    <rect class="cls-6" x="1565.52" y="393.56" width="22.37" height="27.01"/>
    <rect class="cls-2" x="728.05" y="248.75" width="516.12" height="145.05"/>
    <rect id="_Sector_" data-name="&amp;lt;Sector&amp;gt;" class="cls-1" width="1919" height="612"/>
  </g>
</svg>