<?xml version="1.0" encoding="UTF-8"?>
<svg id="Capa_2" data-name="Capa 2" xmlns="http://www.w3.org/2000/svg" viewBox="0 0 1919 612">
  <defs>
    <style>
      .cls-1 {
        letter-spacing: -.01em;
      }

      .cls-2 {
        letter-spacing: 0em;
      }

      .cls-3 {
        stroke-width: 0px;
      }

      .cls-3, .cls-4, .cls-5 {
        fill: none;
      }

      .cls-6 {
        letter-spacing: 0em;
      }

      .cls-7 {
        letter-spacing: 0em;
      }

      .cls-8, .cls-4, .cls-9, .cls-5 {
        stroke-miterlimit: 10;
      }

      .cls-8, .cls-9 {
        fill: #eb5a2d;
      }

      .cls-8, .cls-9, .cls-5 {
        stroke: #eb5a2d;
      }

      .cls-10 {
        letter-spacing: 0em;
      }

      .cls-11 {
        letter-spacing: 0em;
      }

      .cls-12 {
        letter-spacing: 0em;
      }

      .cls-13 {
        letter-spacing: -.04em;
      }

      .cls-4 {
        stroke: #010101;
      }

      .cls-4, .cls-5 {
        stroke-width: 2px;
      }

      .cls-14 {
        letter-spacing: -.02em;
      }

      .cls-15 {
        letter-spacing: 0em;
      }

      .cls-16 {
        letter-spacing: 0em;
      }

      .cls-9 {
        stroke-width: 6px;
      }

      .cls-17 {
        letter-spacing: 0em;
      }

      .cls-18 {
        font-size: 40.38px;
      }

      .cls-18, .cls-19 {
        fill: #010101;
        font-family: MyriadPro-Regular, 'Myriad Pro';
      }

      .cls-20 {
        letter-spacing: 0em;
      }

      .cls-21 {
        letter-spacing: 0em;
      }

      .cls-22 {
        letter-spacing: -.01em;
      }

      .cls-23 {
        letter-spacing: .01em;
      }

      .cls-24 {
        letter-spacing: 0em;
      }

      .cls-19 {
        font-size: 41.8px;
      }
    </style>
  </defs>
  <g id="Capa_1-2" data-name="Capa 1">
    <rect class="cls-4" x="64.66" y="175.06" width="1814.02" height="379.72" rx="83.27" ry="83.27"/>
    <line class="cls-9" x1="187.93" y1="393.56" x2="1785.38" y2="393.56"/>
    <text class="cls-19" transform="translate(134.12 446.68) rotate(-90)"><tspan class="cls-11" x="0" y="0">S</tspan><tspan x="20.86" y="0">emest</tspan><tspan class="cls-21" x="127.99" y="0">r</tspan><tspan x="141.24" y="0">es</tspan></text>
    <text class="cls-18" transform="translate(344.04 466.22)"><tspan class="cls-2" x="0" y="0">C</tspan><tspan x="23.3" y="0">iclo bási</tspan><tspan class="cls-10" x="158.97" y="0">c</tspan><tspan x="176.82" y="0">o</tspan><tspan x="60.29" y="48.46">I a IV</tspan></text>
    <text class="cls-18" transform="translate(827.57 466.22)"><tspan class="cls-2" x="0" y="0">C</tspan><tspan x="23.3" y="0">iclo especializado</tspan><tspan x="104.52" y="48.46">V a</tspan><tspan class="cls-13" x="155.08" y="48.46"> </tspan><tspan x="162.18" y="48.46">VIII</tspan></text>
    <text class="cls-18" transform="translate(1436.93 466.22)"><tspan class="cls-2" x="0" y="0">C</tspan><tspan x="23.3" y="0">iclo p</tspan><tspan class="cls-1" x="114.07" y="0">r</tspan><tspan class="cls-7" x="126.87" y="0">o</tspan><tspan class="cls-22" x="149.04" y="0">f</tspan><tspan class="cls-7" x="160.31" y="0">esional</tspan><tspan x="93.6" y="48.46">IX a X</tspan></text>
    <text class="cls-18" transform="translate(755.58 308.15)"><tspan class="cls-12" x="0" y="0">S</tspan><tspan class="cls-17" x="20.15" y="0">emina</tspan><tspan class="cls-6" x="125.38" y="0">r</tspan><tspan x="138.74" y="0">io de Li</tspan><tspan class="cls-10" x="258.99" y="0">c</tspan><tspan x="276.84" y="0">enci</tspan><tspan class="cls-15" x="347.02" y="0">a</tspan><tspan x="366.32" y="0">tu</tspan><tspan class="cls-24" x="401.93" y="0">r</tspan><tspan x="414.94" y="0">a</tspan><tspan x="0" y="48.46">I y II</tspan></text>
    <rect class="cls-5" x="1271.72" y="271.62" width="513.67" height="123.5"/>
    <text class="cls-18" transform="translate(1300.62 336.82)"><tspan class="cls-14" x="0" y="0">P</tspan><tspan class="cls-20" x="20.84" y="0">r</tspan><tspan class="cls-16" x="33.64" y="0">o</tspan><tspan class="cls-20" x="55.52" y="0">y</tspan><tspan class="cls-7" x="74.14" y="0">e</tspan><tspan class="cls-23" x="94.37" y="0">c</tspan><tspan class="cls-10" x="112.98" y="0">t</tspan><tspan x="126.11" y="0">o de título I y II</tspan></text>
    <rect class="cls-8" x="432.35" y="393.56" width="22.37" height="27.01"/>
    <rect class="cls-8" x="975.47" y="393.56" width="22.37" height="27.01"/>
    <rect class="cls-8" x="1565.52" y="393.56" width="22.37" height="27.01"/>
    <rect class="cls-5" x="728.05" y="248.75" width="516.12" height="145.05"/>
    <rect id="_Sector_" data-name="&amp;lt;Sector&amp;gt;" class="cls-3" width="1919" height="612"/>
  </g>
</svg>