<?xml version="1.0" encoding="UTF-8"?>
<svg id="Capa_2" data-name="Capa 2" xmlns="http://www.w3.org/2000/svg" viewBox="0 0 1920 691">
  <defs>
    <style>
      .cls-1, .cls-2, .cls-3 {
        fill: none;
      }

      .cls-4 {
        stroke-width: 6px;
      }

      .cls-4, .cls-2, .cls-5, .cls-3, .cls-6 {
        stroke-miterlimit: 10;
      }

      .cls-4, .cls-2, .cls-6 {
        stroke: #eb5a2d;
      }

      .cls-4, .cls-6 {
        fill: #eb5a2d;
      }

      .cls-7 {
        font-size: 40.38px;
      }

      .cls-7, .cls-8, .cls-9 {
        font-family: MyriadPro-Regular, 'Myriad Pro';
      }

      .cls-7, .cls-8, .cls-9, .cls-5, .cls-10 {
        fill: #010101;
      }

      .cls-8 {
        font-size: 41.8px;
      }

      .cls-9 {
        font-size: 33.87px;
      }

      .cls-2, .cls-5, .cls-3 {
        stroke-width: 2px;
      }

      .cls-11 {
        letter-spacing: 0em;
      }

      .cls-5, .cls-3 {
        stroke: #010101;
      }

      .cls-12 {
        letter-spacing: 0em;
      }

      .cls-13 {
        letter-spacing: 0em;
      }

      .cls-14 {
        letter-spacing: -.01em;
      }

      .cls-15 {
        letter-spacing: -.02em;
      }

      .cls-16 {
        letter-spacing: -.04em;
      }

      .cls-17 {
        letter-spacing: 0em;
      }

      .cls-18 {
        letter-spacing: 0em;
      }

      .cls-19 {
        letter-spacing: 0em;
      }

      .cls-20 {
        letter-spacing: 0em;
      }

      .cls-21 {
        letter-spacing: 0em;
      }

      .cls-22 {
        letter-spacing: 0em;
      }

      .cls-23 {
        letter-spacing: 0em;
      }

      .cls-24 {
        letter-spacing: 0em;
      }

      .cls-25 {
        letter-spacing: -.01em;
      }

      .cls-26 {
        letter-spacing: 0em;
      }

      .cls-27 {
        letter-spacing: 0em;
      }

      .cls-28 {
        letter-spacing: -.01em;
      }

      .cls-29 {
        letter-spacing: 0em;
      }

      .cls-30 {
        letter-spacing: 0em;
      }

      .cls-31 {
        letter-spacing: 0em;
      }

      .cls-32 {
        letter-spacing: 0em;
      }

      .cls-10 {
        font-family: MyriadConceptRoman-Semibold, 'Myriad Variable Concept';
        font-size: 55.1px;
        font-variation-settings: 'wght' 600, 'wdth' 100;
        font-weight: 600;
      }

      .cls-33 {
        letter-spacing: .02em;
      }

      .cls-34 {
        letter-spacing: .02em;
      }

      .cls-35 {
        letter-spacing: .01em;
      }

      .cls-36 {
        letter-spacing: .01em;
      }

      .cls-37 {
        letter-spacing: 0em;
      }

      .cls-38 {
        letter-spacing: 0em;
      }

      .cls-39 {
        letter-spacing: 0em;
      }
    </style>
  </defs>
  <g id="Capa_1-2" data-name="Capa 1">
    <text class="cls-10" transform="translate(52.34 77.11)"><tspan class="cls-24" x="0" y="0">A</tspan><tspan x="34.82" y="0">si</tspan><tspan class="cls-24" x="71.91" y="0">g</tspan><tspan x="103.26" y="0">n</tspan><tspan class="cls-19" x="134.78" y="0">a</tspan><tspan x="162.44" y="0">tu</tspan><tspan class="cls-26" x="213.14" y="0">r</tspan><tspan x="232.26" y="0">as impa</tspan><tspan class="cls-34" x="415.69" y="0">r</tspan><tspan x="436.58" y="0">tidas</tspan></text>
    <line class="cls-5" x1="53.7" y1="96.25" x2="755.8" y2="96.25"/>
    <text class="cls-9" transform="translate(54.98 135.08)"><tspan class="cls-12" x="0" y="0">D</tspan><tspan x="22.66" y="0">u</tspan><tspan class="cls-21" x="41.31" y="0">r</tspan><tspan x="52.22" y="0">a</tspan><tspan class="cls-23" x="68.54" y="0">n</tspan><tspan class="cls-18" x="87.2" y="0">t</tspan><tspan x="98.21" y="0">e los ciclos de la ca</tspan><tspan class="cls-39" x="361.21" y="0">r</tspan><tspan class="cls-27" x="372.42" y="0">r</tspan><tspan x="383.15" y="0">e</tspan><tspan class="cls-21" x="400.12" y="0">r</tspan><tspan x="411.02" y="0">a</tspan></text>
    <rect class="cls-3" x="52.09" y="182.58" width="1814.02" height="379.72" rx="83.27" ry="83.27"/>
    <line class="cls-4" x1="175.36" y1="401.08" x2="1772.81" y2="401.08"/>
    <text class="cls-8" transform="translate(121.55 454.2) rotate(-90)"><tspan class="cls-37" x="0" y="0">S</tspan><tspan x="20.86" y="0">emest</tspan><tspan class="cls-29" x="127.99" y="0">r</tspan><tspan x="141.24" y="0">es</tspan></text>
    <text class="cls-7" transform="translate(331.47 473.75)"><tspan class="cls-32" x="0" y="0">C</tspan><tspan x="23.3" y="0">iclo b치si</tspan><tspan class="cls-17" x="158.97" y="0">c</tspan><tspan x="176.82" y="0">o</tspan><tspan x="60.29" y="48.46">I a IV</tspan></text>
    <text class="cls-7" transform="translate(815 473.75)"><tspan class="cls-32" x="0" y="0">C</tspan><tspan x="23.3" y="0">iclo especializado</tspan><tspan x="104.52" y="48.46">V a</tspan><tspan class="cls-16" x="155.08" y="48.46"> </tspan><tspan x="162.18" y="48.46">VIII</tspan></text>
    <text class="cls-7" transform="translate(1424.36 473.75)"><tspan class="cls-32" x="0" y="0">C</tspan><tspan x="23.3" y="0">iclo p</tspan><tspan class="cls-25" x="114.07" y="0">r</tspan><tspan class="cls-13" x="126.87" y="0">o</tspan><tspan class="cls-14" x="149.04" y="0">f</tspan><tspan class="cls-13" x="160.31" y="0">esional</tspan><tspan x="93.6" y="48.46">IX a X</tspan></text>
    <text class="cls-7" transform="translate(342.5 370.13)"><tspan class="cls-15" x="0" y="0">P</tspan><tspan class="cls-28" x="20.84" y="0">r</tspan><tspan class="cls-30" x="33.64" y="0">o</tspan><tspan class="cls-28" x="55.52" y="0">y</tspan><tspan x="74.14" y="0">e</tspan><tspan class="cls-36" x="94.37" y="0">c</tspan><tspan class="cls-20" x="112.98" y="0">t</tspan><tspan x="126.11" y="0">o III</tspan></text>
    <rect class="cls-6" x="419.78" y="401.08" width="22.37" height="27.01"/>
    <rect class="cls-6" x="962.91" y="401.08" width="22.37" height="27.01"/>
    <rect class="cls-6" x="1552.95" y="401.08" width="22.37" height="27.01"/>
    <rect class="cls-2" x="716.03" y="264.48" width="516.12" height="136.85"/>
    <line class="cls-5" x1="50.57" y1="656.82" x2="1865.06" y2="656.82"/>
    <rect class="cls-2" x="176.34" y="307.61" width="516.12" height="95.56"/>
    <text class="cls-7" transform="translate(776.66 321.68)"><tspan x="0" y="0">Ele</tspan><tspan class="cls-35" x="49.63" y="0">c</tspan><tspan x="68.24" y="0">ti</tspan><tspan class="cls-28" x="91.05" y="0">v</tspan><tspan class="cls-11" x="110.07" y="0">o </tspan><tspan class="cls-38" x="140.8" y="0">M</tspan><tspan x="173.51" y="0">enci칩n</tspan><tspan class="cls-16" x="288.27" y="0"> </tspan><tspan x="295.37" y="0">V y M:</tspan><tspan x="-42.1" y="48.46">Dise침o G</tspan><tspan class="cls-22" x="109.69" y="48.46">r</tspan><tspan x="122.69" y="48.46">치fi</tspan><tspan class="cls-20" x="163.27" y="48.46">c</tspan><tspan x="181.12" y="48.46">o pa</tspan><tspan class="cls-22" x="254.29" y="48.46">r</tspan><tspan x="267.29" y="48.46">a las </tspan><tspan class="cls-31" x="348.85" y="48.46">A</tspan><tspan class="cls-33" x="373.45" y="48.46">r</tspan><tspan class="cls-17" x="387.62" y="48.46">t</tspan><tspan x="400.74" y="48.46">es</tspan></text>
    <rect id="_Sector_" data-name="&amp;lt;Sector&amp;gt;" class="cls-1" width="1920" height="691"/>
  </g>
</svg>